<svg xmlns="http://www.w3.org/2000/svg" viewBox="0 0 100 100" width="100" height="100">
  <path d="M50 10 
           C30 25, 8 40, 8 60 
           C8 75, 18 85, 33 85 
           C42 85, 48 78, 49 72 
           C52 78, 58 85, 67 85 
           C82 85, 92 75, 92 60 
           C92 40, 70 25, 50 10 Z"/>
     <path d="M48 67 
             Q47 73, 46 79 
             Q45 85, 43 89 
             Q41 93, 40 95 
             L60 95 
             Q59 93, 57 89 
             Q55 85, 54 79 
             Q53 73, 52 67 
             Q51 63, 51 60 
             Q50.5 57, 50 55 
             Q49.5 57, 49 60 
             Q49 63, 48 67 Z"/>
</svg>